<svg width="24" height="25" viewBox="0 0 24 25" fill="none" xmlns="http://www.w3.org/2000/svg">
<mask id="mask0_285_1345" style="mask-type:alpha" maskUnits="userSpaceOnUse" x="-1" y="0" width="25" height="25">
<rect x="-0.401855" y="0.329102" width="24" height="24" fill="#D9D9D9"/>
</mask>
<g mask="url(#mask0_285_1345)">
<path d="M4.79814 21.329C4.18148 21.329 3.66064 21.1165 3.23564 20.6915C2.81064 20.2665 2.59814 19.7457 2.59814 19.129V5.42898C2.59814 4.94565 2.82314 4.60815 3.27314 4.41648C3.72314 4.22482 4.11481 4.29565 4.44814 4.62898L6.69814 6.87898L5.34814 8.22898L6.04814 8.92898L7.39814 7.57898L9.99815 10.179L8.64815 11.529L9.34815 12.229L10.6981 10.879L13.2981 13.479L11.9481 14.829L12.6481 15.529L13.9981 14.179L16.5981 16.779L15.2481 18.129L15.9481 18.829L17.2981 17.479L19.2981 19.479C19.6315 19.8123 19.7023 20.204 19.5106 20.654C19.319 21.104 18.9815 21.329 18.4981 21.329H4.79814ZM5.59814 18.329H13.8981L5.59814 10.029V18.329Z" fill="#BDC1FE"/>
</g>
</svg>
