<svg width="24" height="25" viewBox="0 0 24 25" fill="none" xmlns="http://www.w3.org/2000/svg">
<mask id="mask0_285_1749" style="mask-type:alpha" maskUnits="userSpaceOnUse" x="0" y="0" width="24" height="25">
<rect y="0.5" width="24" height="24" fill="#D9D9D9"/>
</mask>
<g mask="url(#mask0_285_1749)">
<path d="M7.5 3.5C8.36667 3.5 9.19167 3.68333 9.975 4.05C10.7583 4.41667 11.4333 4.93333 12 5.6C12.5667 4.93333 13.2417 4.41667 14.025 4.05C14.8083 3.68333 15.6333 3.5 16.5 3.5C18.0667 3.5 19.375 4.025 20.425 5.075C21.475 6.125 22 7.43333 22 9C22 9.08333 21.9958 9.16667 21.9875 9.25C21.9792 9.33333 21.975 9.41667 21.975 9.5H19.975C19.9917 9.41667 20 9.33333 20 9.25V9C20 8 19.6667 7.16667 19 6.5C18.3333 5.83333 17.5 5.5 16.5 5.5C15.7167 5.5 14.9917 5.72083 14.325 6.1625C13.6583 6.60417 13.2 7.16667 12.95 7.85H11.05C10.8 7.16667 10.3417 6.60417 9.675 6.1625C9.00833 5.72083 8.28333 5.5 7.5 5.5C6.5 5.5 5.66667 5.83333 5 6.5C4.33333 7.16667 4 8 4 9V9.25C4 9.33333 4.00833 9.41667 4.025 9.5H2.025C2.025 9.41667 2.02083 9.33333 2.0125 9.25C2.00417 9.16667 2 9.08333 2 9C2 7.43333 2.525 6.125 3.575 5.075C4.625 4.025 5.93333 3.5 7.5 3.5ZM5.3 15.5H8.1C8.63333 16.0167 9.21667 16.575 9.85 17.175C10.4833 17.775 11.2 18.4333 12 19.15C12.8 18.4333 13.5167 17.775 14.15 17.175C14.7833 16.575 15.3667 16.0167 15.9 15.5H18.725C18.0917 16.2 17.3417 16.9583 16.475 17.775C15.6083 18.5917 14.6 19.5167 13.45 20.55L12 21.85L10.55 20.55C9.4 19.5167 8.39583 18.5917 7.5375 17.775C6.67917 16.9583 5.93333 16.2 5.3 15.5ZM11.05 16.5C11.2667 16.5 11.4542 16.4375 11.6125 16.3125C11.7708 16.1875 11.8833 16.025 11.95 15.825L13.3 11.75L14.175 13.05C14.2583 13.1833 14.375 13.2917 14.525 13.375C14.675 13.4583 14.8333 13.5 15 13.5H23V11.5H15.575L13.85 8.95C13.75 8.8 13.6208 8.6875 13.4625 8.6125C13.3042 8.5375 13.1333 8.5 12.95 8.5C12.7333 8.5 12.5458 8.5625 12.3875 8.6875C12.2292 8.8125 12.1167 8.975 12.05 9.175L10.7 13.225L9.85 11.95C9.76667 11.8167 9.65 11.7083 9.5 11.625C9.35 11.5417 9.19167 11.5 9.025 11.5H1V13.5H8.425L10.15 16.05C10.25 16.2 10.3792 16.3125 10.5375 16.3875C10.6958 16.4625 10.8667 16.5 11.05 16.5Z" fill="#BDC1FE"/>
</g>
</svg>
