<svg width="24" height="25" viewBox="0 0 24 25" fill="none" xmlns="http://www.w3.org/2000/svg">
<mask id="mask0_285_25" style="mask-type:alpha" maskUnits="userSpaceOnUse" x="-1" y="0" width="25" height="25">
<rect x="-0.401855" y="0.329102" width="24" height="24" fill="#D9D9D9"/>
</mask>
<g mask="url(#mask0_285_25)">
<mask id="mask1_285_25" style="mask-type:alpha" maskUnits="userSpaceOnUse" x="-1" y="0" width="25" height="25">
<rect x="-0.538574" y="0.508789" width="24" height="24" fill="#D9D9D9"/>
</mask>
<g mask="url(#mask1_285_25)">
<path d="M10.4615 23.4586V21.4586C8.37814 21.2253 6.59064 20.3628 5.09897 18.8711C3.60731 17.3794 2.74481 15.5919 2.51147 13.5086H0.511475V11.5086H2.51147C2.74481 9.42526 3.60731 7.63776 5.09897 6.14609C6.59064 4.65443 8.37814 3.79193 10.4615 3.55859V1.55859H12.4615V3.55859C14.5448 3.79193 16.3323 4.65443 17.824 6.14609C19.3156 7.63776 20.1781 9.42526 20.4115 11.5086H22.4115V13.5086H20.4115C20.1781 15.5919 19.3156 17.3794 17.824 18.8711C16.3323 20.3628 14.5448 21.2253 12.4615 21.4586V23.4586H10.4615ZM11.4615 19.5086C13.3948 19.5086 15.0448 18.8253 16.4115 17.4586C17.7781 16.0919 18.4615 14.4419 18.4615 12.5086C18.4615 10.5753 17.7781 8.92526 16.4115 7.55859C15.0448 6.19193 13.3948 5.50859 11.4615 5.50859C9.52814 5.50859 7.87814 6.19193 6.51147 7.55859C5.14481 8.92526 4.46147 10.5753 4.46147 12.5086C4.46147 14.4419 5.14481 16.0919 6.51147 17.4586C7.87814 18.8253 9.52814 19.5086 11.4615 19.5086ZM11.4615 16.5086C10.3615 16.5086 9.41981 16.1169 8.63647 15.3336C7.85314 14.5503 7.46147 13.6086 7.46147 12.5086C7.46147 11.4086 7.85314 10.4669 8.63647 9.68359C9.41981 8.90026 10.3615 8.50859 11.4615 8.50859C12.5615 8.50859 13.5031 8.90026 14.2865 9.68359C15.0698 10.4669 15.4615 11.4086 15.4615 12.5086C15.4615 13.6086 15.0698 14.5503 14.2865 15.3336C13.5031 16.1169 12.5615 16.5086 11.4615 16.5086ZM11.4615 14.5086C12.0115 14.5086 12.4823 14.3128 12.874 13.9211C13.2656 13.5294 13.4615 13.0586 13.4615 12.5086C13.4615 11.9586 13.2656 11.4878 12.874 11.0961C12.4823 10.7044 12.0115 10.5086 11.4615 10.5086C10.9115 10.5086 10.4406 10.7044 10.049 11.0961C9.65731 11.4878 9.46147 11.9586 9.46147 12.5086C9.46147 13.0586 9.65731 13.5294 10.049 13.9211C10.4406 14.3128 10.9115 14.5086 11.4615 14.5086Z" fill="#BDC1FE"/>
</g>
</g>
</svg>
